<svg xmlns="http://www.w3.org/2000/svg" width="121" height="22" viewBox="0 0 121 22">
  <g id="LOGO" transform="translate(-116 -36)">
    <text id="PORTOSTAR" transform="translate(141 36)" fill="#5e3bee" font-size="16" font-family="SegoeUI, Segoe UI"><tspan x="0" y="17">DEEP KIDIYA</tspan></text>
    <g id="Group_18" data-name="Group 18" transform="translate(0 -1)">
      <circle id="Ellipse_9" data-name="Ellipse 9" cx="9.5" cy="9.5" r="9.5" transform="translate(116 40)" fill="#5e3bee"/>
      <path id="A" d="M3.756,4.624a5,5,0,0,1,2.322.516A3.686,3.686,0,0,1,7.626,6.61a4.379,4.379,0,0,1,.546,2.214,4.313,4.313,0,0,1-.546,2.2,3.708,3.708,0,0,1-1.548,1.458A5,5,0,0,1,3.756,13H.828V4.624ZM3.7,11.572a2.759,2.759,0,0,0,2.04-.72,2.742,2.742,0,0,0,.72-2.028,2.805,2.805,0,0,0-.72-2.046A2.72,2.72,0,0,0,3.7,6.04H2.508v5.532Z" transform="translate(121.172 40.376)" fill="#fff"/>
    </g>
  </g>
</svg>
