<svg xmlns="http://www.w3.org/2000/svg" width="39.5" height="36.492" viewBox="0 0 39.5 36.492">
  <g id="Frame" transform="translate(-2.75 -4.625)">
    <path id="Vector" d="M22.5,30c7.071,0,10.607,0,12.8-2.2s2.2-5.732,2.2-12.8,0-10.607-2.2-12.8S29.571,0,22.5,0H15C7.929,0,4.393,0,2.2,2.2S0,7.929,0,15,0,25.607,2.2,27.8c1.224,1.226,2.865,1.768,5.3,2.006" transform="translate(3.75 5.625)" fill="none" stroke="#5e3bee" stroke-linecap="round" stroke-linejoin="round" stroke-width="2"/>
    <path id="Vector-2" data-name="Vector" d="M14.424,2.812a16.492,16.492,0,0,0-7.2,2.147C3.476,6.9,1.6,7.877.68,7.256S-.068,4.716.282.874L.361,0" transform="translate(11.826 32.813)" fill="none" stroke="#5e3bee" stroke-linecap="round" stroke-linejoin="round" stroke-width="2"/>
  </g>
</svg>
