<svg xmlns="http://www.w3.org/2000/svg" width="22.052" height="22.041" viewBox="0 0 22.052 22.041">
  <g id="Frame" transform="translate(-0.974 -1)">
    <path id="Vector" d="M9.075.633a.994.994,0,0,1,1.852,0L13,6.367A.99.99,0,0,0,13.923,7H19.01a.974.974,0,0,1,.611,1.743L16,12a.968.968,0,0,0-.322,1.092L17,18.695a.986.986,0,0,1-1.508,1.119l-4.917-3.12a1,1,0,0,0-1.15,0l-4.917,3.12A.986.986,0,0,1,3,18.695l1.322-5.6A.968.968,0,0,0,4,12L.381,8.743A.974.974,0,0,1,.991,7H6.078A.989.989,0,0,0,7,6.367L9.074.633Z" transform="translate(1.999 2)" fill="none" stroke="#eec01c" stroke-linecap="round" stroke-linejoin="round" stroke-width="2"/>
  </g>
</svg>
